<mxfile host="Electron" modified="2023-12-04T19:58:22.131Z" agent="Mozilla/5.0 (X11; Linux x86_64) AppleWebKit/537.36 (KHTML, like Gecko) draw.io/22.0.3 Chrome/114.0.5735.289 Electron/25.8.4 Safari/537.36" etag="oJ9YsrdkSdnWqJKOq99p" version="22.0.3" type="device">
  <diagram name="Page-1" id="GBvQ2PgnZEtW7YQ2X2fc">
    <mxGraphModel dx="1434" dy="775" grid="1" gridSize="10" guides="1" tooltips="1" connect="1" arrows="1" fold="1" page="1" pageScale="1" pageWidth="850" pageHeight="1100" math="0" shadow="0">
      <root>
        <mxCell id="0" />
        <mxCell id="1" parent="0" />
        <mxCell id="JlKVv1MMBCdg0D8khr2D-1" value="Actor" style="shape=umlActor;verticalLabelPosition=bottom;verticalAlign=top;html=1;fillColor=#1ba1e2;fontColor=#ffffff;strokeColor=#006EAF;" parent="1" vertex="1">
          <mxGeometry x="80" y="110" width="30" height="60" as="geometry" />
        </mxCell>
        <mxCell id="JlKVv1MMBCdg0D8khr2D-2" value="" style="html=1;points=[];perimeter=orthogonalPerimeter;fillColor=#1ba1e2;fontColor=#ffffff;strokeColor=#006EAF;" parent="1" vertex="1">
          <mxGeometry x="92.5" y="200" width="5" height="300" as="geometry" />
        </mxCell>
        <mxCell id="JlKVv1MMBCdg0D8khr2D-3" value="" style="html=1;verticalAlign=bottom;labelBackgroundColor=none;endArrow=block;endFill=1;" parent="1" edge="1">
          <mxGeometry width="160" relative="1" as="geometry">
            <mxPoint x="97.5" y="220" as="sourcePoint" />
            <mxPoint x="257.5" y="220" as="targetPoint" />
          </mxGeometry>
        </mxCell>
        <mxCell id="JlKVv1MMBCdg0D8khr2D-4" value="1: stackToVar(i: int) : void" style="text;html=1;strokeColor=none;fillColor=none;align=left;verticalAlign=middle;whiteSpace=wrap;rounded=0;" parent="1" vertex="1">
          <mxGeometry x="100" y="190" width="160" height="30" as="geometry" />
        </mxCell>
        <mxCell id="JlKVv1MMBCdg0D8khr2D-5" value=":Controller" style="rounded=0;whiteSpace=wrap;html=1;fillColor=#1ba1e2;fontColor=#ffffff;strokeColor=#006EAF;" parent="1" vertex="1">
          <mxGeometry x="210" y="120" width="120" height="60" as="geometry" />
        </mxCell>
        <mxCell id="JlKVv1MMBCdg0D8khr2D-6" value="" style="endArrow=none;dashed=1;html=1;startArrow=none;" parent="1" source="JlKVv1MMBCdg0D8khr2D-8" edge="1">
          <mxGeometry width="50" height="50" relative="1" as="geometry">
            <mxPoint x="264.5" y="730" as="sourcePoint" />
            <mxPoint x="264.5" y="190" as="targetPoint" />
          </mxGeometry>
        </mxCell>
        <mxCell id="JlKVv1MMBCdg0D8khr2D-7" value="" style="endArrow=none;dashed=1;html=1;" parent="1" target="JlKVv1MMBCdg0D8khr2D-8" edge="1">
          <mxGeometry width="50" height="50" relative="1" as="geometry">
            <mxPoint x="263" y="520" as="sourcePoint" />
            <mxPoint x="264.5" y="190" as="targetPoint" />
          </mxGeometry>
        </mxCell>
        <mxCell id="JlKVv1MMBCdg0D8khr2D-8" value="" style="html=1;points=[];perimeter=orthogonalPerimeter;fillColor=#1ba1e2;fontColor=#ffffff;strokeColor=#006EAF;" parent="1" vertex="1">
          <mxGeometry x="260" y="200" width="5" height="290" as="geometry" />
        </mxCell>
        <mxCell id="JlKVv1MMBCdg0D8khr2D-9" value="stack:Stack" style="rounded=0;whiteSpace=wrap;html=1;fillColor=#1ba1e2;fontColor=#ffffff;strokeColor=#006EAF;" parent="1" vertex="1">
          <mxGeometry x="450" y="120" width="120" height="60" as="geometry" />
        </mxCell>
        <mxCell id="JlKVv1MMBCdg0D8khr2D-10" value="" style="endArrow=none;dashed=1;html=1;startArrow=none;rounded=0;" parent="1" source="JlKVv1MMBCdg0D8khr2D-12" edge="1">
          <mxGeometry width="50" height="50" relative="1" as="geometry">
            <mxPoint x="524.5" y="730" as="sourcePoint" />
            <mxPoint x="524.5" y="190" as="targetPoint" />
          </mxGeometry>
        </mxCell>
        <mxCell id="JlKVv1MMBCdg0D8khr2D-11" value="" style="endArrow=none;dashed=1;html=1;rounded=0;" parent="1" target="JlKVv1MMBCdg0D8khr2D-12" edge="1">
          <mxGeometry width="50" height="50" relative="1" as="geometry">
            <mxPoint x="523" y="500" as="sourcePoint" />
            <mxPoint x="524.5" y="190" as="targetPoint" />
          </mxGeometry>
        </mxCell>
        <mxCell id="JlKVv1MMBCdg0D8khr2D-12" value="" style="html=1;points=[];perimeter=orthogonalPerimeter;fillColor=#1ba1e2;fontColor=#ffffff;strokeColor=#006EAF;" parent="1" vertex="1">
          <mxGeometry x="520" y="270" width="5" height="30" as="geometry" />
        </mxCell>
        <mxCell id="JlKVv1MMBCdg0D8khr2D-13" value="1.3: setVar(i, :NumeroComplesso)&amp;nbsp;" style="text;html=1;strokeColor=none;fillColor=none;align=left;verticalAlign=middle;whiteSpace=wrap;rounded=0;" parent="1" vertex="1">
          <mxGeometry x="265" y="300" width="255" height="30" as="geometry" />
        </mxCell>
        <mxCell id="JlKVv1MMBCdg0D8khr2D-14" value="" style="html=1;verticalAlign=bottom;labelBackgroundColor=none;endArrow=block;endFill=1;rounded=0;" parent="1" edge="1">
          <mxGeometry width="160" relative="1" as="geometry">
            <mxPoint x="360" y="340" as="sourcePoint" />
            <mxPoint x="270" y="340" as="targetPoint" />
          </mxGeometry>
        </mxCell>
        <mxCell id="JlKVv1MMBCdg0D8khr2D-15" value="" style="endArrow=none;html=1;rounded=0;" parent="1" edge="1">
          <mxGeometry width="50" height="50" relative="1" as="geometry">
            <mxPoint x="270" y="330" as="sourcePoint" />
            <mxPoint x="360" y="330" as="targetPoint" />
          </mxGeometry>
        </mxCell>
        <mxCell id="JlKVv1MMBCdg0D8khr2D-16" value="" style="endArrow=none;html=1;rounded=0;" parent="1" edge="1">
          <mxGeometry width="50" height="50" relative="1" as="geometry">
            <mxPoint x="360" y="340" as="sourcePoint" />
            <mxPoint x="360" y="330" as="targetPoint" />
            <Array as="points" />
          </mxGeometry>
        </mxCell>
        <mxCell id="JlKVv1MMBCdg0D8khr2D-17" value="1.2: drop(): NumeroComplesso&amp;nbsp;" style="text;html=1;strokeColor=none;fillColor=none;align=left;verticalAlign=middle;whiteSpace=wrap;rounded=0;" parent="1" vertex="1">
          <mxGeometry x="265" y="250" width="195" height="30" as="geometry" />
        </mxCell>
        <mxCell id="JlKVv1MMBCdg0D8khr2D-18" value="" style="endArrow=classic;html=1;rounded=0;exitX=1.083;exitY=0.504;exitDx=0;exitDy=0;exitPerimeter=0;" parent="1" edge="1">
          <mxGeometry width="50" height="50" relative="1" as="geometry">
            <mxPoint x="264.9950000000001" y="280" as="sourcePoint" />
            <mxPoint x="509.5799999999999" y="280" as="targetPoint" />
          </mxGeometry>
        </mxCell>
        <mxCell id="JlKVv1MMBCdg0D8khr2D-19" value="alt" style="shape=umlFrame;whiteSpace=wrap;html=1;pointerEvents=0;" parent="1" vertex="1">
          <mxGeometry x="90" y="240" width="479" height="190" as="geometry" />
        </mxCell>
        <mxCell id="JlKVv1MMBCdg0D8khr2D-20" value="[!isEmpty()]" style="text;html=1;align=center;verticalAlign=middle;resizable=0;points=[];autosize=1;strokeColor=none;fillColor=none;" parent="1" vertex="1">
          <mxGeometry x="155" y="240" width="80" height="30" as="geometry" />
        </mxCell>
        <mxCell id="JlKVv1MMBCdg0D8khr2D-21" value="" style="endArrow=none;dashed=1;html=1;dashPattern=1 3;strokeWidth=2;rounded=0;" parent="1" edge="1">
          <mxGeometry width="50" height="50" relative="1" as="geometry">
            <mxPoint x="78.5" y="370.34000000000003" as="sourcePoint" />
            <mxPoint x="570" y="370" as="targetPoint" />
          </mxGeometry>
        </mxCell>
        <mxCell id="JlKVv1MMBCdg0D8khr2D-26" value="" style="endArrow=classic;html=1;rounded=0;" parent="1" edge="1">
          <mxGeometry width="50" height="50" relative="1" as="geometry">
            <mxPoint x="510" y="290" as="sourcePoint" />
            <mxPoint x="265" y="290" as="targetPoint" />
          </mxGeometry>
        </mxCell>
        <mxCell id="JlKVv1MMBCdg0D8khr2D-27" value="[else]" style="text;html=1;align=center;verticalAlign=middle;resizable=0;points=[];autosize=1;strokeColor=none;fillColor=none;" parent="1" vertex="1">
          <mxGeometry x="97.5" y="370" width="50" height="30" as="geometry" />
        </mxCell>
        <mxCell id="Shx8IfjoVYav84HP0xaW-2" value="&lt;span style=&quot;color: rgb(240, 240, 240); font-family: Helvetica; font-size: 12px; font-style: normal; font-variant-ligatures: normal; font-variant-caps: normal; font-weight: 400; letter-spacing: normal; orphans: 2; text-align: left; text-indent: 0px; text-transform: none; widows: 2; word-spacing: 0px; -webkit-text-stroke-width: 0px; background-color: rgb(27, 29, 30); text-decoration-thickness: initial; text-decoration-style: initial; text-decoration-color: initial; float: none; display: inline !important;&quot;&gt;1.2: errorHandler(NoValueInStackToOperate)&lt;/span&gt;" style="text;whiteSpace=wrap;html=1;" parent="1" vertex="1">
          <mxGeometry x="265" y="380" width="245" height="20" as="geometry" />
        </mxCell>
        <mxCell id="Shx8IfjoVYav84HP0xaW-3" value="" style="html=1;verticalAlign=bottom;labelBackgroundColor=none;endArrow=block;endFill=1;rounded=0;" parent="1" edge="1">
          <mxGeometry width="160" relative="1" as="geometry">
            <mxPoint x="354.99999999999994" y="420" as="sourcePoint" />
            <mxPoint x="264.99999999999994" y="420" as="targetPoint" />
          </mxGeometry>
        </mxCell>
        <mxCell id="Shx8IfjoVYav84HP0xaW-4" value="" style="endArrow=none;html=1;rounded=0;" parent="1" edge="1">
          <mxGeometry width="50" height="50" relative="1" as="geometry">
            <mxPoint x="264.99999999999994" y="409.30999999999995" as="sourcePoint" />
            <mxPoint x="354.99999999999994" y="409.30999999999995" as="targetPoint" />
          </mxGeometry>
        </mxCell>
        <mxCell id="Shx8IfjoVYav84HP0xaW-5" value="" style="endArrow=none;html=1;rounded=0;" parent="1" edge="1">
          <mxGeometry width="50" height="50" relative="1" as="geometry">
            <mxPoint x="355" y="420" as="sourcePoint" />
            <mxPoint x="354.99999999999994" y="409.30999999999995" as="targetPoint" />
            <Array as="points" />
          </mxGeometry>
        </mxCell>
        <mxCell id="Shx8IfjoVYav84HP0xaW-6" value="1.1: isEmpty(): boolean&amp;nbsp;" style="text;html=1;strokeColor=none;fillColor=none;align=left;verticalAlign=middle;whiteSpace=wrap;rounded=0;" parent="1" vertex="1">
          <mxGeometry x="265" y="190" width="195" height="30" as="geometry" />
        </mxCell>
        <mxCell id="Shx8IfjoVYav84HP0xaW-7" value="" style="endArrow=classic;html=1;rounded=0;exitX=1.083;exitY=0.504;exitDx=0;exitDy=0;exitPerimeter=0;" parent="1" edge="1">
          <mxGeometry width="50" height="50" relative="1" as="geometry">
            <mxPoint x="264.9950000000001" y="220" as="sourcePoint" />
            <mxPoint x="509.5799999999999" y="220" as="targetPoint" />
          </mxGeometry>
        </mxCell>
        <mxCell id="Shx8IfjoVYav84HP0xaW-8" value="" style="endArrow=classic;html=1;rounded=0;" parent="1" edge="1">
          <mxGeometry width="50" height="50" relative="1" as="geometry">
            <mxPoint x="510" y="230" as="sourcePoint" />
            <mxPoint x="265" y="230" as="targetPoint" />
          </mxGeometry>
        </mxCell>
      </root>
    </mxGraphModel>
  </diagram>
</mxfile>
